<svg xmlns="http://www.w3.org/2000/svg" viewBox="0 0 334.84 103.45"><defs><style>.cls-1{fill:#ee2927;}.cls-2{fill:#fff;}.cls-3{fill:#3f55a5;}</style></defs><title>Asset 1</title><g id="Layer_2" data-name="Layer 2"><g id="Layer_1-2" data-name="Layer 1"><path class="cls-1" d="M26.16,63.78.53,28a2.86,2.86,0,0,1,.66-4L34,.53a2.85,2.85,0,0,1,4,.66L63.6,37Z"/><circle class="cls-2" cx="32.32" cy="20.96" r="5.42"/><circle class="cls-2" cx="21.07" cy="29.02" r="5.42"/><circle class="cls-2" cx="41.4" cy="33.63" r="5.42"/><circle class="cls-2" cx="30.15" cy="41.69" r="5.42"/><path class="cls-3" d="M65.55,39.68,91.18,75.44a2.85,2.85,0,0,1-.65,4L57.72,102.92a2.85,2.85,0,0,1-4-.65L28.12,66.51Z"/><circle class="cls-2" cx="61.56" cy="61.76" r="5.42"/><circle class="cls-2" cx="50.31" cy="69.83" r="5.42"/><circle class="cls-2" cx="70.65" cy="74.44" r="5.42"/><circle class="cls-2" cx="59.4" cy="82.5" r="5.42"/><rect class="cls-2" x="22.8" y="50.37" width="46.06" height="2.62" transform="translate(-21.53 36.37) rotate(-35.63)"/><path class="cls-2" d="M95.3,34.62H105c7.65,0,12.83,5.22,12.83,13.34s-5.05,13.9-13,13.9H95.3Zm3.61,24.17h5.72c6.41,0,9.46-4.59,9.46-10.75,0-5.38-2.78-10.35-9.45-10.35H98.91Z"/><path class="cls-2" d="M139.86,51.89c0,5.72-3.28,10.44-9.35,10.44-5.68,0-9.13-4.4-9.13-10.37s3.38-10.42,9.36-10.42C136.25,41.54,139.86,45.66,139.86,51.89Zm-14.94,0c0,4.36,2.17,7.53,5.74,7.53s5.67-3,5.67-7.51-2-7.55-5.75-7.55S124.92,47.4,124.92,51.93Z"/><path class="cls-2" d="M144.32,47.13c0-1.72,0-3.51,0-5.12h3.3c.06.59.15,2.05.14,3.05a6.12,6.12,0,0,1,5.77-3.52,5.44,5.44,0,0,1,5.5,3.55,6.77,6.77,0,0,1,6.33-3.55c3.22,0,6.26,1.9,6.26,7.27v13H168.2V49.23c0-2.31-.82-4.74-3.93-4.74s-4.63,2.45-4.63,6v11.4h-3.36V49.34c0-2.56-.72-4.83-3.84-4.83s-4.72,2.57-4.72,6.36v11h-3.4Z"/><path class="cls-2" d="M177.45,33.11h3.42V37.4h-3.42Zm0,8.9h3.42V61.86h-3.42Z"/><path class="cls-2" d="M186.75,47c0-1.72,0-3.47,0-5h3.33c.09.58.14,2.67.13,3.26.79-1.71,2.41-3.73,6.25-3.73s6.64,2.27,6.64,7.55V61.86h-3.43V49.53c0-3-1.17-5-4.21-5-3.74,0-5.25,2.85-5.25,6.84V61.86h-3.43Z"/><path class="cls-2" d="M208.91,33.11h3.42V37.4h-3.42Zm0,8.9h3.42V61.86h-3.42Z"/><path class="cls-2" d="M235.27,51.89c0,5.72-3.28,10.44-9.35,10.44-5.69,0-9.13-4.4-9.13-10.37s3.37-10.42,9.35-10.42C231.65,41.54,235.27,45.66,235.27,51.89Zm-15,0c0,4.36,2.17,7.53,5.74,7.53s5.68-3,5.68-7.51-2-7.55-5.76-7.55S220.32,47.4,220.32,51.93Z"/><path class="cls-2" d="M250.28,34.62h10.34c5.31,0,8.93,3,8.93,7.92,0,5.31-3.82,8.13-9.15,8.13h-6.48V61.86h-3.64Zm3.64,13h6.31c3.73,0,5.6-1.82,5.6-5s-2.27-5-5.46-5h-6.45Z"/><path class="cls-2" d="M274,33.11h3.43V37.4H274Zm0,8.9h3.43V61.86H274Z"/><path class="cls-2" d="M281.51,59.09l11.43-14.2H282.08V42h14.77v2.87L285.59,59h11.8l-.55,2.88H281.51Z"/><path class="cls-2" d="M300.08,59.09l11.43-14.2H300.65V42h14.77v2.87L304.16,59H316l-.55,2.88H300.08Z"/><path class="cls-2" d="M334.56,57.53a30,30,0,0,0,.28,4.33h-3.28a10.64,10.64,0,0,1-.33-2.6c-.69,1.32-2.27,3.07-6.13,3.07-4.68,0-6.68-3-6.68-6.07,0-4.43,3.48-6.46,9.38-6.46h3.39V48.11c0-1.75-.56-3.89-4.27-3.89-3.32,0-3.88,1.65-4.24,3.2h-3.32c.27-2.74,2-5.9,7.67-5.88,4.85,0,7.53,2,7.53,6.5Zm-3.34-5.35H328c-3.95,0-6.07,1.1-6.07,3.89,0,2.07,1.41,3.57,3.86,3.57,4.78,0,5.43-3.22,5.43-6.82Z"/></g></g></svg>