<svg xmlns="http://www.w3.org/2000/svg" viewBox="0 0 52.62 31.13"><defs><style>.cls-1{fill:#3f55a5;}.cls-2{fill:#ee2927;}</style></defs><title>Asset 3</title><g id="Layer_2" data-name="Layer 2"><g id="Layer_1-2" data-name="Layer 1"><path class="cls-1" d="M1.21,0H34.32V6.38H1.21A1.38,1.38,0,0,1,0,4.88V1.5A1.38,1.38,0,0,1,1.21,0Z"/><path class="cls-2" d="M52.62,1.5V4.88c0,.82-.41,1.5-.92,1.5H37.07V0H51.7C52.21,0,52.62.68,52.62,1.5Z"/><path class="cls-1" d="M51.42,18.76H18.3V12.38H51.42a1.38,1.38,0,0,1,1.2,1.5v3.38A1.39,1.39,0,0,1,51.42,18.76Z"/><path class="cls-2" d="M0,17.26V13.88c0-.83.42-1.5.92-1.5H15.55v6.38H.92C.42,18.76,0,18.07,0,17.26Z"/><path class="cls-1" d="M1.21,24.75H34.32v6.38H1.21A1.38,1.38,0,0,1,0,29.63V26.25A1.38,1.38,0,0,1,1.21,24.75Z"/><path class="cls-2" d="M52.62,26.25v3.38c0,.82-.41,1.5-.92,1.5H37.07V24.75H51.7C52.21,24.75,52.62,25.43,52.62,26.25Z"/></g></g></svg>